<?xml version="1.0" encoding="UTF-8" standalone="no"?>
<svg
   xmlns:dc="http://purl.org/dc/elements/1.1/"
   xmlns:cc="http://creativecommons.org/ns#"
   xmlns:rdf="http://www.w3.org/1999/02/22-rdf-syntax-ns#"
   xmlns:svg="http://www.w3.org/2000/svg"
   xmlns="http://www.w3.org/2000/svg"
   xmlns:sodipodi="http://sodipodi.sourceforge.net/DTD/sodipodi-0.dtd"
   xmlns:inkscape="http://www.inkscape.org/namespaces/inkscape"
   width="17.829498in"
   height="10.420812in"
   viewBox="0 0 452.86926 264.68862"
   version="1.1"
   id="svg943"
   inkscape:version="1.0.1 (3bc2e813f5, 2020-09-07)"
   sodipodi:docname="Company Logo.svg">
  <defs
     id="defs937" />
  <sodipodi:namedview
     id="base"
     pagecolor="#ffffff"
     bordercolor="#666666"
     borderopacity="1.0"
     inkscape:pageopacity="0.0"
     inkscape:pageshadow="2"
     inkscape:zoom="0.59550968"
     inkscape:cx="684.8448"
     inkscape:cy="536.93187"
     inkscape:document-units="in"
     inkscape:current-layer="layer1"
     inkscape:document-rotation="0"
     showgrid="false"
     inkscape:window-width="1920"
     inkscape:window-height="1016"
     inkscape:window-x="0"
     inkscape:window-y="27"
     inkscape:window-maximized="1"
     units="in"
     fit-margin-top="0"
     fit-margin-left="0"
     fit-margin-right="0"
     fit-margin-bottom="0" />
  <metadata
     id="metadata940">
    <rdf:RDF>
      <cc:Work
         rdf:about="">
        <dc:format>image/svg+xml</dc:format>
        <dc:type
           rdf:resource="http://purl.org/dc/dcmitype/StillImage" />
        <dc:title></dc:title>
      </cc:Work>
    </rdf:RDF>
  </metadata>
  <g
     inkscape:label="Layer 1"
     inkscape:groupmode="layer"
     id="layer1"
     transform="translate(108.41437,-16.027754)">
    <g
       aria-label="E"
       id="text903"
       style="font-style:normal;font-weight:normal;font-size:107.391px;line-height:1.25;font-family:sans-serif;letter-spacing:0px;word-spacing:0px;fill:#6a0a0a;fill-opacity:1;stroke:#edd01f;stroke-width:2.685;stroke-linecap:round;stroke-linejoin:round;stroke-miterlimit:4;stroke-dasharray:none;stroke-opacity:1"
       transform="matrix(2.4292969,0,0,2.4292969,-141.29828,-223.88304)">
      <path
         d="m 101.62823,167.41729 v 16.43082 H 41.274488 v -75.1737 h 58.957662 v 16.43083 H 62.323124 v 12.67214 h 33.398601 v 15.89386 H 62.323124 v 13.74605 z"
         style="font-style:normal;font-variant:normal;font-weight:800;font-stretch:normal;font-family:Montserrat;-inkscape-font-specification:'Montserrat Ultra-Bold';fill:#6a0a0a;fill-opacity:1;stroke:#edd01f;stroke-width:2.685;stroke-linecap:round;stroke-linejoin:round;stroke-miterlimit:4;stroke-dasharray:none;stroke-opacity:1"
         id="path873" />
    </g>
    <g
       id="g871"
       transform="matrix(2.4292969,0,0,2.4292969,-141.29828,-223.88304)">
      <g
         aria-label="i"
         transform="rotate(37.89959)"
         id="text919"
         style="font-style:normal;font-weight:normal;font-size:122.688px;line-height:1.25;font-family:sans-serif;letter-spacing:0px;word-spacing:0px;fill:#edd01f;fill-opacity:1;stroke:none;stroke-width:3.06719">
        <path
           id="path858"
           style="font-style:normal;font-variant:normal;font-weight:normal;font-stretch:normal;font-family:'Oleo Script';-inkscape-font-specification:'Oleo Script';fill:#edd01f;fill-opacity:1;stroke-width:3.06719"
           d="m 131.54999,69.462459 q 0,5.152897 -3.31258,17.789761 -3.31257,12.514176 -3.31257,16.44019 0,3.80333 1.10419,3.80333 0.73613,0 5.64365,-2.33107 l 1.47225,-0.73613 2.0857,4.29408 q -1.10419,0.9815 -2.94451,2.45376 -1.84032,1.47226 -6.87053,4.0487 -5.03021,2.45376 -9.32429,2.45376 -4.29408,0 -6.74784,-2.57644 -2.45376,-2.69914 -2.45376,-7.11591 0,-4.53945 3.0672,-15.949438 3.0672,-11.532672 3.0672,-14.967936 0,-5.152897 -3.18989,-9.692353 l -1.10419,-1.472256 0.12269,-1.594944 q 6.50246,-1.84032 21.10233,-1.84032 1.59495,1.84032 1.59495,6.993216 z M 117.56356,49.096251 q -2.45376,-2.45376 -2.45376,-6.502464 0,-4.048704 3.31257,-7.115905 3.43527,-3.0672 7.85203,-3.0672 4.41677,0 6.87053,2.45376 2.45376,2.45376 2.45376,6.502465 0,3.926016 -3.55795,6.993216 -3.43526,3.0672 -7.72934,3.0672 -4.29408,0 -6.74784,-2.331072 z" />
      </g>
      <g
         aria-label="i"
         transform="rotate(37.89959)"
         id="text899"
         style="font-style:normal;font-weight:normal;font-size:122.688px;line-height:1.25;font-family:sans-serif;letter-spacing:0px;word-spacing:0px;fill:#6a0a0a;fill-opacity:1;stroke:none;stroke-width:3.06719">
        <path
           d="m 128.76231,69.160694 q 0,5.152896 -3.31257,17.78976 -3.31258,12.514177 -3.31258,16.440196 0,3.80333 1.10419,3.80333 0.73613,0 5.64365,-2.33108 l 1.47226,-0.73613 2.08569,4.29409 q -1.10419,0.9815 -2.94451,2.45376 -1.84032,1.47225 -6.87053,4.0487 -5.0302,2.45376 -9.32428,2.45376 -4.29408,0 -6.74784,-2.57645 -2.45376,-2.69913 -2.45376,-7.1159 0,-4.53946 3.0672,-15.949443 3.0672,-11.532673 3.0672,-14.967937 0,-5.152896 -3.18989,-9.692352 l -1.10419,-1.472256 0.12268,-1.594944 q 6.50247,-1.84032 21.10234,-1.84032 1.59494,1.84032 1.59494,6.993216 z M 114.77588,48.794485 q -2.45376,-2.45376 -2.45376,-6.502464 0,-4.048704 3.31258,-7.115904 3.43526,-3.0672 7.85203,-3.0672 4.41677,0 6.87053,2.45376 2.45376,2.45376 2.45376,6.502464 0,3.926016 -3.55795,6.993216 -3.43527,3.0672 -7.72935,3.0672 -4.29408,0 -6.74784,-2.331072 z"
           style="font-style:normal;font-variant:normal;font-weight:normal;font-stretch:normal;font-family:'Oleo Script';-inkscape-font-specification:'Oleo Script';fill:#6a0a0a;fill-opacity:1;stroke-width:3.06719"
           id="path863" />
      </g>
    </g>
    <g
       aria-label="Signature"
       id="text907"
       style="font-style:normal;font-weight:normal;font-size:24.8893px;line-height:1.25;font-family:sans-serif;letter-spacing:0px;word-spacing:0px;fill:#edd01f;fill-opacity:1;stroke:#b39c10;stroke-width:0.622;stroke-linecap:round;stroke-linejoin:round;stroke-miterlimit:4;stroke-dasharray:none;stroke-opacity:0.49557;paint-order:stroke markers fill"
       transform="matrix(2.4292969,0,0,2.4292969,-141.29828,-223.88304)">
      <path
         id="path854"
         style="font-style:normal;font-variant:normal;font-weight:normal;font-stretch:normal;font-family:Amsterdam;-inkscape-font-specification:Amsterdam;fill:#edd01f;fill-opacity:1;stroke:#b39c10;stroke-width:0.622;stroke-linecap:round;stroke-linejoin:round;stroke-miterlimit:4;stroke-dasharray:none;stroke-opacity:0.49557;paint-order:stroke markers fill"
         d="m 198.77552,186.75217 v 0 q 0.26737,-0.15799 0.52258,-0.24306 0.25521,-0.0851 0.32813,0.0122 0.0851,0.0972 -0.2066,0.43751 -0.91147,1.04515 -2.18754,1.92017 -1.26391,0.86286 -2.60073,1.45836 -1.04516,0.47396 -2.21185,0.75348 -1.15453,0.27952 -2.29691,0.12153 -1.13023,-0.15799 -2.066,-1.0087 -1.4219,-1.31252 -1.17884,-3.20838 0.2066,-1.50697 1.16668,-2.55213 0.97224,-1.05731 2.44275,-1.43405 1.22745,-0.26737 2.4549,-0.0608 0.55904,0.0851 1.02085,0.37675 0.42536,0.32813 0.46182,0.76563 0.0486,0.43751 -0.32813,0.83856 -0.7778,0.69272 -1.79865,0.8264 -1.14238,0.19445 -2.29691,0.24306 -0.55904,0 -0.78994,0.23091 -0.21876,0.23091 -0.25521,0.78994 -0.1823,1.51912 0.97223,2.47921 0.71703,0.57119 1.73788,0.48612 1.033,-0.0851 2.18754,-0.54689 1.15453,-0.47396 2.26045,-1.09376 1.10592,-0.63196 1.99309,-1.191 0.37674,-0.24305 0.66841,-0.40104 z m -8.44632,-2.16323 v 0 q 0,0.0243 -0.0365,0.0243 -0.0486,0.0486 -0.13368,0.12153 -0.0729,0.0608 -0.14584,0.13368 -0.0608,0.0608 -0.0608,0.0851 0.0243,0.0851 0.43751,0.0486 0.4132,-0.0486 0.91147,-0.14584 0.49827,-0.10937 0.8264,-0.27952 0.34029,-0.18229 0.2066,-0.42535 -0.0608,-0.0729 -0.15799,-0.12153 -0.0851,-0.0608 -0.19444,-0.0851 -0.48612,0 -0.88717,0.19445 -0.40105,0.18229 -0.76564,0.44966 z m -2.95317,2.21184 v 0 q 0.23091,-0.47397 0.31598,-0.43751 0.0851,0.0365 0.0365,0.3889 -0.0365,0.34028 -0.14584,0.77779 -0.15799,0.66841 -0.54688,1.55558 -0.3889,0.87501 -0.86287,1.59204 -0.70487,0.99654 -1.75002,1.50697 -1.03301,0.49827 -1.88372,0.24306 -0.83855,-0.25522 -0.97223,-1.59204 -0.0243,-1.11808 0.19444,-2.4549 0.0729,-0.55904 0.15799,-1.09377 0,-0.19445 -0.0972,-0.29167 -0.0972,-0.10938 -0.25521,-0.0851 -0.10938,0 -0.24306,0 -0.66842,0.10937 -1.36114,-0.0243 -0.8264,-0.24306 -0.96008,-0.81425 -0.13369,-0.58334 0.0243,-1.51912 0.0851,-0.66842 0.49828,-0.99655 0.4132,-0.34028 0.97223,-0.27952 0.77779,0.0729 0.75349,0.5955 -0.0243,0.52258 -0.29167,1.11807 -0.24306,0.49828 -0.25522,0.83856 -0.0121,0.32813 0.57119,0.23091 0.13369,-0.0365 0.29168,-0.0851 0.21875,-0.0851 0.49827,-0.14584 0.27952,-0.0729 0.72918,-0.0365 0.53473,0.0243 0.70487,0.49827 0.18229,0.46182 0.15799,1.16669 -0.0243,0.70487 -0.13369,1.43405 -0.13368,0.91147 -0.13368,1.56773 0,0.64411 0.37674,0.75349 0.49828,0.13368 1.48267,-0.89932 0.99654,-1.04516 2.12677,-3.51221 z m -7.03657,-0.29167 v 0 q 0.26736,0.0243 -0.0972,0.74133 -0.35243,0.70487 -1.17884,1.6285 -0.81425,0.92362 -1.8351,1.59204 -1.00869,0.66841 -2.01739,0.60765 -0.75348,-0.0729 -1.11807,-0.44966 -0.35244,-0.37675 -0.48612,-0.82641 -0.13369,-0.46181 -0.17014,-0.80209 -0.0243,-0.24306 -0.0608,-0.36459 -0.0365,-0.12153 -0.14584,-0.0121 -0.77779,1.78648 -2.69796,1.78648 -1.06946,0 -1.73787,-0.94793 -0.66842,-0.94793 -0.85071,-2.36983 -0.17014,-1.43405 0.27952,-2.90456 0.10937,-0.48612 0.59549,-0.66842 0.34029,-0.13368 0.70488,0.0243 0.36459,0.15799 0.38889,0.47397 0,0.32813 -0.0486,0.6441 -0.0608,0.24306 -0.0851,0.46182 -0.0486,0.87501 0.0243,1.92017 0.0851,1.04515 0.55904,1.78649 0.46181,0.59549 1.02085,0.15798 0.55904,-0.44966 0.98439,-1.38543 0.32813,-0.74134 0.51043,-1.47052 0.19445,-0.74133 0.24306,-1.14238 0.0486,-0.17014 0.0486,-0.21875 0.0851,-0.31598 0.17014,-0.6198 0.13368,-0.44966 0.26737,-0.87502 0.2309,-0.8264 1.16668,-0.69271 0.57119,0.0486 0.6198,0.55903 0.0486,0.69272 0.0243,1.38544 -0.0243,0.72918 -0.0729,1.4219 -0.0608,1.0087 -0.0851,2.00524 -0.0243,1.44621 0.57119,1.68927 0.60765,0.2309 1.47051,-0.31598 0.87502,-0.54689 1.67711,-1.48267 0.0729,-0.0851 0.1823,-0.21875 0.15799,-0.2066 0.38889,-0.46181 0.23091,-0.25521 0.43751,-0.43751 0.21875,-0.19445 0.35244,-0.21875 z m -12.4082,0.26736 v 0 q 0.66842,-0.64411 0.57119,-0.31597 -0.0851,0.31597 -0.72917,1.16668 -0.64411,0.83856 -1.6042,1.82295 -0.96008,0.98439 -2.02954,1.71357 -1.06947,0.71702 -2.02955,0.77779 -1.17884,0 -1.89587,-0.69272 -0.70487,-0.70487 -1.00869,-1.84725 -0.30383,-1.15454 -0.25522,-2.49136 0.0608,-1.49482 0.10938,-2.98964 0.0243,-0.75348 0.0486,-1.47051 0.0608,-1.20314 0.0851,-2.40629 0.0243,-0.37674 -0.12153,-0.63195 -0.14583,-0.25521 -0.52257,-0.27952 -0.42536,-0.0243 -1.06947,-0.0243 -0.55903,0 -0.96008,0 -0.55904,-0.0608 -0.74133,-0.29167 -0.19445,-0.24306 0.29167,-0.48612 0.34028,-0.13368 0.8264,-0.14583 0.47397,-0.0122 0.93578,0.0121 0.29167,0.0243 0.51042,0.0243 0.71703,0 0.87502,-0.21876 0.15799,-0.2309 0.19445,-0.89932 0.0486,-0.70487 0.0729,-1.4219 0.0243,-0.37674 0.0608,-0.75348 0,-0.55904 0.29167,-1.0087 0.31598,-0.42535 0.8021,-0.32813 0.42535,0.10938 0.47396,0.53473 0.0365,0.70487 0.0365,1.4219 0.0243,0.40105 0,0.8021 0,0.42535 0.0243,0.88716 -0.0243,0.63196 0.14583,0.8021 0.17015,0.15799 0.83856,0.15799 1.09377,0 2.16323,0 0.48612,0 2.89241,-0.0608 2.40629,-0.0729 2.58858,0.38889 0.19445,0.44966 -3.03824,0.52258 -1.95663,0.10938 -3.02609,0.10938 -0.71703,-0.0243 -1.28822,-0.0243 -0.96008,0 -1.19099,0.34028 -0.21875,0.32813 -0.19445,1.33683 -0.0243,0.86286 -0.0851,2.09031 -0.15799,2.51567 -0.15799,5.12856 0.0608,1.79864 0.64411,2.33337 0.58334,0.53473 1.51912,0.2066 0.93578,-0.34028 2.0174,-1.19099 1.09377,-0.86286 2.16323,-1.84725 0.2309,-0.30383 0.55903,-0.57119 0.10938,-0.0972 0.2066,-0.1823 z m -8.05742,-0.40105 q -0.32813,1.02085 -1.32467,2.34553 -0.9844,1.31252 -2.46706,1.68926 -1.48266,0.37675 -2.56428,-0.0972 -1.08161,-0.48612 -1.19099,-2.57643 -1.22745,2.38198 -2.34552,3.0504 -1.10592,0.66841 -2.30907,0.51042 -1.36113,-0.21875 -1.8351,-1.05731 -0.48612,-0.83855 -0.32813,-1.93232 0.15799,-1.10592 0.66841,-2.11462 0.40105,-0.75349 1.10593,-1.39759 0.71702,-0.64411 1.49481,-1.0087 0.96009,-0.48612 1.93233,-0.46181 0.97223,0.0243 2.07815,0.6441 0.0243,0.0243 0.0243,-0.0486 0,-0.10937 0.0486,-0.26736 0.0608,-0.17014 0.19445,-0.26737 0.36459,-0.26736 0.86286,-0.26736 0.49827,0 0.76564,0.49827 0.0486,0.64411 -0.13368,1.64065 -0.40105,2.18754 0,3.14762 0.40104,0.96009 1.40974,0.89932 1.02085,-0.0729 2.6372,-2.00524 1.61634,-1.94448 1.27606,-0.92363 z m -11.95853,3.42714 v 0 q 0.55904,0.40105 1.27606,-0.10937 0.72918,-0.51043 1.3976,-1.44621 0.66841,-0.93578 1.11807,-1.87156 0.46181,-0.93578 0.51042,-1.38544 -1.36113,-0.72917 -2.33337,-0.24305 -0.97224,0.47396 -1.55558,1.56773 -0.57119,1.08161 -0.68057,2.11462 -0.10937,1.02085 0.26737,1.37328 z m -2.4306,-1.8594 q 0.93578,-1.48266 1.10592,-1.88371 0.1823,-0.40105 0.27952,0.0365 0.10938,0.4375 -0.59549,1.98093 -0.70488,1.53128 -1.75003,2.36983 -1.04516,0.8264 -1.95663,0.60765 -0.89932,-0.21875 -1.28822,-1.25176 -0.38889,-1.04515 -0.2309,-2.62504 0,-0.0243 0.0243,-0.13368 0.0243,-0.26737 0.0851,-0.78995 0.0729,-0.52257 0.0972,-1.08161 0.0365,-0.55904 -0.0365,-0.92363 -0.0608,-0.36459 -0.32813,-0.25521 -0.64411,0.35244 -1.26391,1.38544 -0.60765,1.02085 -1.10592,2.15108 -0.49828,1.11807 -0.70488,1.81079 -0.0851,0.21875 -0.15798,0.46181 -0.10938,0.31598 -0.24306,0.63196 -0.35244,0.91147 -1.22746,0.70487 -0.48611,-0.10938 -0.57119,-0.59549 -0.0243,-0.37675 -0.0243,-0.71703 0,-0.21875 -0.0243,-0.40105 -0.0486,-2.69796 -0.13368,-5.43238 0.0243,-0.31598 0.27952,-0.43751 0.25521,-0.12153 0.60765,-0.12153 0.26736,0 0.49827,0.14584 0.24306,0.14583 0.30382,0.60765 0.0243,0.15799 0.0243,0.31598 0.0243,0.0851 0.0243,0.15798 0.0486,0.37675 0.0486,0.64411 0,0.40105 0.0486,0.54689 0.0608,0.14583 0.23091,-0.0122 0.18229,-0.15799 0.58334,-0.75348 0.69272,-1.06946 1.71357,-1.8108 0.93578,-0.66841 2.05385,-0.55903 0.96009,0.0972 1.28822,1.00869 0.13368,0.46182 0.13368,0.93578 0,0.46182 -0.0608,0.93578 -0.0243,0.48612 -0.0729,0.99655 -0.0365,0.15799 -0.0608,0.31598 -0.15799,1.73787 0.10938,2.33337 0.26737,0.58334 0.81425,0.38889 0.54688,-0.2066 1.48266,-1.68926 z m -9.71023,-1.45836 v 0 q 0.24306,-0.0608 0.41321,-0.0365 0.17014,0.0122 0.18229,0.12153 0.0243,0.0972 -0.30382,0.31598 -0.13369,0.0729 -0.31598,0.2066 -0.64411,0.46181 -1.49482,1.02085 -0.91147,0.6198 -1.66496,1.14238 -0.74133,0.51043 -0.98439,0.77779 -0.26736,0.37674 -0.34028,0.8264 -0.0608,0.43751 -0.0851,0.94794 -0.0365,0.40104 -0.0851,0.80209 -0.69272,4.30216 -2.34553,7.3404 -1.64065,3.0504 -3.70665,4.84904 -2.05386,1.81079 -4.01049,2.35768 -1.96878,0.55903 -3.31776,-0.14584 -1.34898,-0.69272 -1.59204,-2.6372 -0.13368,-1.57988 0.64411,-3.23269 0.77779,-1.64065 2.07816,-3.14762 1.28821,-1.50697 2.73442,-2.77088 1.4462,-1.25175 2.67365,-2.07816 0.34028,-0.24306 0.71703,-0.48612 1.73787,-1.20314 3.53651,-2.32121 1.14238,-0.64411 1.06947,-1.87156 0,-0.13369 0,-0.37675 -0.0365,-0.35243 -0.0365,-0.75348 -0.69272,1.09377 -1.95663,1.98093 -1.25176,0.88717 -2.57643,1.27607 -1.31253,0.37674 -2.2483,-0.0486 -0.93578,-0.42536 -0.97224,-1.98094 0.0365,-0.8021 0.46181,-1.47051 1.0087,-1.78649 2.80734,-2.80734 0.66841,-0.36459 1.61634,-0.52258 0.94794,-0.17014 1.82295,0.0243 0.88717,0.18229 1.4219,0.85071 0.13368,-0.21876 0.38889,-0.27952 0.25522,-0.0729 0.47397,-0.0729 0.0486,0 0.0729,0 0.99654,-0.0972 0.93578,0.91148 -0.0243,0.72917 -0.0486,1.4462 -0.0243,0.53473 -0.0608,1.04516 0.0365,0.60764 0.66842,0.40104 0.6441,-0.21875 1.55558,-0.72917 1.04515,-0.60765 1.87155,-0.87502 z m -7.80221,0.66841 v 0 q 1.11808,-1.13022 1.22745,-1.73787 -0.26736,-0.48612 -0.83855,-0.58334 -0.55904,-0.10938 -1.14238,0.0122 -0.58334,0.10938 -0.98439,0.35244 -1.10592,0.69272 -1.6285,1.68926 -0.51043,0.98439 -0.37674,1.68926 0.13368,0.69272 1.033,0.47397 0.91147,-0.21875 2.71011,-1.89587 z m 1.0087,5.32301 v 0 q 0,-0.0365 0.0243,-0.0608 0.0365,-0.15798 0.0608,-0.40104 0.0243,-0.24306 -0.0243,-0.40105 -0.0365,-0.15799 -0.19444,-0.0486 -1.11808,0.77779 -2.34553,1.71357 -0.72918,0.53473 -1.37328,0.98439 -0.89932,0.66841 -2.10247,1.73787 -1.20314,1.06947 -2.35768,2.39414 -1.15453,1.32467 -1.89586,2.71011 -0.75349,1.3976 -0.75349,2.67366 0.0851,1.82295 1.02085,2.18754 0.93578,0.37674 2.35768,-0.44967 1.40975,-0.8264 2.92887,-2.67365 1.53127,-1.84725 2.78303,-4.4966 1.26391,-2.6372 1.87156,-5.86989 z m -6.07649,-4.78827 q -0.37674,0.77779 -1.28822,1.72572 -0.89932,0.94793 -2.05385,1.20314 -1.14238,0.25522 -2.18754,-0.78994 -0.40104,-0.46181 -0.59549,-1.05731 -0.1823,-0.60765 -0.13368,-1.19099 0,-0.15799 0,-0.40105 0,-0.6198 0.0486,-1.43405 0.0608,-0.81425 0.24306,-1.47051 0.19445,-0.65626 0.59549,-0.78994 1.15454,-0.29168 1.25176,0.80209 0,0.35244 -0.0243,0.70487 -0.0243,0.1823 -0.0243,0.34029 -0.0243,0.51042 -0.0486,1.02085 0,0.40105 -0.0365,0.80209 -0.0243,1.76219 0.78994,2.10247 0.81425,0.32813 1.85941,-0.71703 1.04515,-1.04515 1.36113,-1.73787 0.32813,-0.69272 0.47397,-0.29167 0.14583,0.40105 -0.23091,1.17884 z m -4.27785,-6.70845 v 0 q -0.15799,0.13368 -0.38889,0.17014 -0.21876,0.0365 -0.3889,-0.0365 -0.13368,-0.10937 -0.17014,-0.27951 -0.0365,-0.1823 -0.0365,-0.42536 0,-0.0486 0.0243,-0.0972 0.0243,-0.21876 0.10937,-0.43751 0.24306,-0.58334 1.0087,-0.53473 0.26737,0.0365 0.4132,0.21875 0.15799,0.1823 0.0729,0.42536 -0.1823,0.59549 -0.64411,0.99654 z m 11.47241,-34.01618 v 0 q 3.56083,3.26915 2.11462,7.88728 -0.26736,0.8021 -0.66841,1.55558 -0.74133,1.33683 -1.70142,2.51567 -0.94793,1.16668 -2.01739,2.23614 -0.71703,0.75349 -1.67711,0.51043 -0.26737,-0.0243 -0.35244,-0.26737 -0.0486,-0.24306 0.13368,-0.40104 1.73788,-1.67712 3.0504,-3.71882 0.93578,-1.36113 1.36113,-2.94102 1.04516,-4.27784 -2.34552,-7.04872 -1.60419,-1.26391 -3.58513,-1.77434 -1.87156,-0.49827 -3.75527,-0.64411 -1.88371,-0.15799 -3.79173,-0.0243 -2.90456,0.17014 -5.77266,0.68056 -2.85595,0.49828 -5.6876,1.191 -3.6945,0.91147 -7.255326,2.23614 -3.548669,1.32468 -6.890738,3.14763 -3.232693,1.73787 -5.991419,4.16847 -2.454901,2.16323 -4.034788,5.05564 -2.029548,3.84034 0.340283,7.48623 1.506969,2.18754 3.585129,3.8768 3.232692,2.67366 6.81782,4.81258 3.026092,1.81079 6.040031,3.57298 2.005238,1.15453 3.986178,2.33337 1.4219,0.8264 2.78303,1.71357 1.36113,0.87501 2.64935,1.89586 0.77779,0.64411 1.71357,0.31598 3.20839,-0.93578 6.514,-1.33683 0.10937,0 0.21875,-0.0243 0.75348,-0.13369 1.47051,0 0.18229,0.0486 0.31598,0.17014 0.13368,0.12153 0.13368,0.36459 0,0.24306 -0.14584,0.36459 -0.14583,0.12153 -0.32813,0.12153 -1.15453,0.0243 -2.2483,0.24306 -1.09377,0.2066 -2.16323,0.47396 -0.86286,0.21876 -1.68926,0.37674 -0.10938,0.0243 -0.2066,0.0486 -0.40105,0.0608 -0.78995,0.19444 -0.38889,0.13369 -0.68056,0.40105 0.2066,0.53473 0.58334,0.87502 0.15799,0.19444 0.31598,0.40104 0.66841,0.88717 1.16668,1.8351 0.49828,0.94794 0.74134,2.0174 0.58334,2.75872 -1.79864,4.25354 -0.8021,0.47397 -1.67712,0.8021 -3.11116,1.11807 -6.39246,0.93578 -1.28822,-0.0851 -2.40629,-0.64411 -1.531277,-0.8021 -2.017397,-2.2483 -0.473966,-1.44621 0.279519,-2.98963 0.510425,-0.99655 1.336828,-1.71357 1.04516,-0.93578 2.22399,-1.66496 1.191,-0.74133 2.45491,-1.36114 0.53473,-0.26736 1.04515,-0.53473 0.26737,-0.13368 0.53473,-0.26736 0.0243,-0.29167 -0.0972,-0.44966 -0.12153,-0.15799 -0.27952,-0.26737 -0.0608,-0.0243 -0.10938,-0.0851 -2.16323,-1.6528 -4.5209,-3.01394 -2.855954,-1.68926 -5.748362,-3.34207 -1.203145,-0.69272 -2.40629,-1.4219 -4.168472,-2.40628 -8.020966,-5.28654 -2.381983,-1.77434 -4.302154,-4.01048 -0.935779,-1.15454 -1.579887,-2.49136 -1.361134,-2.85595 -0.267366,-5.88205 0.559037,-1.55558 1.494817,-2.8681 0.935779,-1.32467 2.066006,-2.50351 2.515666,-2.60074 5.553911,-4.43584 5.055639,-3.11116 10.670315,-4.98272 7.012266,-2.34552 14.328366,-3.34207 2.53997,-0.34028 5.09209,-0.40105 2.56428,-0.0729 5.10425,0.32813 1.51913,0.2066 2.94102,0.64411 1.43406,0.42536 2.74658,1.22745 0.80209,0.51043 1.49481,1.11808 z m -22.32502,42.83924 v 0 q -0.42535,-0.4375 -0.98439,-0.13368 -1.4219,0.63196 -2.74657,1.4219 -1.31252,0.78994 -2.51567,1.78649 -0.64411,0.55903 -1.06946,1.30037 -0.802096,1.53127 -0.18229,2.83164 0.63195,1.31252 2.32121,1.61635 0.40105,0.0486 0.71703,0.0729 0.10938,0 0.18229,0 2.57644,-0.0729 4.6789,-1.04515 2.62504,-1.11808 1.90802,-3.8768 -0.30383,-1.14238 -0.91147,-2.11462 -0.5955,-0.98439 -1.3976,-1.85941 z" />
    </g>
  </g>
</svg>
